<svg width="759" height="145" viewBox="0 0 759 145" fill="none" xmlns="http://www.w3.org/2000/svg">
<path d="M6.73338 116.528C2.31738 114.224 0.109375 111.248 0.109375 107.6C0.109375 103.952 2.02937 98.3362 5.86938 90.7522C9.70938 83.0722 14.8454 74.2882 21.2774 64.4002C15.5174 64.0162 8.46138 63.8242 0.109375 63.8242C2.41338 57.5842 7.98138 54.4642 16.8134 54.4642C18.7334 54.4642 22.2854 54.7522 27.4694 55.3282C38.2214 39.7762 48.2534 26.6722 57.5654 16.0162C66.8774 5.36023 73.0694 0.0322266 76.1414 0.0322266C78.6374 0.0322266 81.9014 1.90423 85.9334 5.64823C84.0134 7.08823 81.1814 13.0882 77.4374 23.6482C73.7894 34.1122 70.5254 45.6322 67.6454 58.2082C64.8614 70.6882 63.4694 80.7682 63.4694 88.4482C63.4694 92.2882 63.8534 95.1682 64.6214 97.0882C65.4854 98.9122 66.7814 99.8242 68.5094 99.8242C70.9094 99.8242 73.7414 98.0962 77.0054 94.6402C80.2694 91.0882 83.8214 85.6642 87.6614 78.3682L90.2534 81.1042C87.1814 89.2642 83.2454 95.8402 78.4454 100.832C73.6454 105.728 68.6534 108.176 63.4694 108.176C59.0534 108.176 55.8374 106.256 53.8214 102.416C51.8054 98.5762 50.7974 93.0562 50.7974 85.8562C50.7974 81.1522 51.4214 75.2002 52.6694 68.0002C47.7734 67.2322 40.9094 66.3202 32.0774 65.2642C23.1494 81.1042 14.7014 98.1922 6.73338 116.528ZM54.1094 60.9442C55.8374 52.8802 58.0934 44.5282 60.8774 35.8882C63.6614 27.2482 66.4934 19.5202 69.3734 12.7042C65.1494 16.0642 60.2054 21.6322 54.5414 29.4082C48.8774 37.1842 42.9254 46.4002 36.6854 57.0562L47.4854 59.3602C50.3654 60.1282 52.5734 60.6562 54.1094 60.9442Z" fill="#41659A"/>
<path d="M90.5526 144.32C87.8646 144.32 85.5606 143.504 83.6406 141.872C81.7206 140.336 80.7606 138.032 80.7606 134.96C80.7606 131.216 82.1526 127.808 84.9366 124.736C87.8166 121.664 91.1286 119.072 94.8726 116.96C98.6166 114.848 103.465 112.4 109.417 109.616C111.049 105.488 113.353 98.0002 116.329 87.1522C112.873 92.0482 109.465 95.8882 106.105 98.6722C102.841 101.456 99.3366 102.848 95.5926 102.848C92.4246 102.848 89.5926 101.888 87.0966 99.9682C84.6006 98.0482 83.3526 95.0242 83.3526 90.8962C83.3526 87.6322 84.1206 83.5042 85.6566 78.5122C87.1926 73.4242 89.0166 69.0082 91.1286 65.2642C93.2406 61.4242 95.0646 59.5042 96.6006 59.5042C97.5606 59.5042 99.0006 60.0322 100.921 61.0882C102.841 62.0482 103.993 63.1042 104.377 64.2562C102.553 66.7522 100.537 70.9282 98.3286 76.7842C96.2166 82.6402 95.1606 87.2482 95.1606 90.6082C95.1606 94.1602 96.5526 95.9362 99.3366 95.9362C102.217 95.9362 105.337 94.2562 108.697 90.8962C112.057 87.5362 115.273 83.4082 118.345 78.5122C118.537 77.8402 118.825 76.2562 119.209 73.7602C119.593 71.2642 120.457 69.1042 121.801 67.2802C123.145 65.3602 125.065 64.4002 127.561 64.4002C127.945 64.4002 129.481 64.5922 132.169 64.9762C132.073 67.3762 130.921 72.6082 128.713 80.6722C126.601 88.7362 124.105 96.6082 121.225 104.288C125.929 102.368 130.345 99.4402 134.473 95.5042C138.697 91.5682 142.009 86.3842 144.409 79.9522L146.857 81.9682C144.841 88.5922 141.337 94.1602 136.345 98.6722C131.449 103.184 125.785 106.88 119.353 109.76C114.841 120.416 110.233 128.816 105.529 134.96C100.921 141.2 95.9286 144.32 90.5526 144.32ZM89.1126 138.992C91.1286 138.992 93.7686 136.928 97.0326 132.8C100.297 128.768 103.513 123.152 106.681 115.952C101.113 118.736 96.3126 121.808 92.2806 125.168C88.3446 128.528 86.3766 131.792 86.3766 134.96C86.3766 136.016 86.5686 136.928 86.9526 137.696C87.4326 138.56 88.1526 138.992 89.1126 138.992Z" fill="#41659A"/>
<path d="M149.361 110.768C146.001 110.768 143.217 109.664 141.009 107.456C138.705 105.248 137.553 102.128 137.553 98.0962C137.553 92.5282 139.569 86.2882 143.601 79.3762C147.729 72.4642 152.961 66.6082 159.297 61.8082C165.633 57.0082 171.969 54.6082 178.305 54.6082C182.529 54.6082 186.033 55.7122 188.817 57.9202C191.697 60.0322 193.137 62.7682 193.137 66.1282C193.137 70.5442 190.401 72.8482 184.929 73.0402C188.385 74.0962 190.113 75.5362 190.113 77.3602C190.113 78.0322 189.777 79.0402 189.105 80.3842C188.433 81.7282 187.665 83.1202 186.801 84.5602C185.265 87.0562 184.065 89.2642 183.201 91.1842C182.337 93.0082 181.905 94.7362 181.905 96.3682C181.905 97.8082 182.241 99.0562 182.913 100.112C183.681 101.072 184.785 101.552 186.225 101.552C188.913 101.552 192.321 99.6802 196.449 95.9362C200.673 92.1922 204.753 86.5762 208.689 79.0882L211.425 81.8242C207.873 89.7922 203.457 96.2242 198.177 101.12C192.897 105.92 187.569 108.32 182.193 108.32C178.353 108.32 175.377 107.024 173.265 104.432C171.249 101.936 170.241 99.0562 170.241 95.7922C165.921 100.976 162.225 104.768 159.153 107.168C156.081 109.568 152.817 110.768 149.361 110.768ZM152.385 103.424C155.745 103.424 159.633 101.024 164.049 96.2242C168.561 91.3282 173.649 84.9922 179.313 77.2162L182.193 73.3282C182.481 72.8482 182.865 72.6082 183.345 72.6082L183.921 72.7522C184.401 71.2162 184.641 69.4402 184.641 67.4242C184.641 62.4322 182.625 59.9362 178.593 59.9362C174.369 59.9362 169.953 62.1922 165.345 66.7042C160.737 71.2162 156.849 76.5922 153.681 82.8322C150.609 89.0722 149.073 94.4002 149.073 98.8162C149.073 100.448 149.313 101.648 149.793 102.416C150.369 103.088 151.233 103.424 152.385 103.424Z" fill="#41659A"/>
<path d="M250.929 109.472C247.185 109.472 244.017 107.936 241.425 104.864C238.833 101.888 236.913 98.2882 235.665 94.0642C234.417 89.8402 233.793 86.0482 233.793 82.6882C246.177 79.9042 252.369 75.6322 252.369 69.8722C252.369 68.1442 251.793 66.7522 250.641 65.6962C249.585 64.6402 248.049 64.1122 246.033 64.1122C240.177 64.1122 234.993 67.8562 230.481 75.3442C226.065 82.7362 222.033 91.3282 218.385 101.12C217.329 104 216.321 105.92 215.361 106.88C214.401 107.936 213.009 108.464 211.185 108.464C209.649 108.464 208.305 107.792 207.153 106.448C206.097 105.104 205.569 102.176 205.569 97.6642C205.569 86.6242 208.401 73.5202 214.065 58.3522C219.729 43.0882 226.209 29.7442 233.505 18.3202C240.801 6.89623 246.369 1.18423 250.209 1.18423C251.841 1.18423 253.185 2.19223 254.241 4.20823C255.393 6.22423 255.969 8.72023 255.969 11.6962C255.969 16.0162 254.673 21.0082 252.081 26.6722C249.585 32.2402 246.033 37.6162 241.425 42.8002C236.913 47.9842 231.825 52.2562 226.161 55.6162C223.665 61.5682 221.649 67.6162 220.113 73.7602C218.577 79.8082 217.617 85.3282 217.233 90.3202C227.601 66.5122 238.257 54.6082 249.201 54.6082C253.041 54.6082 256.401 56.0002 259.281 58.7842C262.161 61.4722 263.601 64.7842 263.601 68.7202C263.601 72.2722 262.401 75.3442 260.001 77.9362C257.601 80.4322 254.769 82.3522 251.505 83.6962C248.241 84.9442 245.361 85.6162 242.865 85.7122C243.825 90.1282 245.121 94.0642 246.753 97.5202C248.481 100.88 250.977 102.56 254.241 102.56C257.697 102.56 261.345 100.304 265.185 95.7922C269.025 91.1842 272.529 85.3762 275.697 78.3682L277.713 80.8162C275.025 88.5922 271.185 95.3122 266.193 100.976C261.201 106.64 256.113 109.472 250.929 109.472ZM230.337 45.8242C235.041 41.6962 239.313 36.7522 243.153 30.9922C247.089 25.1362 249.105 19.7122 249.201 14.7202C247.665 15.3922 245.025 18.7522 241.281 24.8002C237.537 30.8482 233.889 37.8562 230.337 45.8242Z" fill="#41659A"/>
<path d="M281.301 108.608C277.365 108.608 274.485 107.312 272.661 104.72C270.933 102.128 270.069 98.9122 270.069 95.0722C270.069 91.0402 270.885 86.8642 272.517 82.5442C274.245 78.2242 276.453 74.6242 279.141 71.7442C281.829 68.8642 284.565 67.4242 287.349 67.4242C288.501 67.4242 289.989 67.8082 291.813 68.5762C292.389 64.1602 293.925 60.5122 296.421 57.6322C299.013 54.7522 302.613 53.3122 307.221 53.3122C311.061 53.3122 313.893 54.4162 315.717 56.6242C317.541 58.7362 318.453 61.5202 318.453 64.9762C318.453 68.3362 317.541 72.1762 315.717 76.4962C313.989 80.8162 311.733 85.1362 308.949 89.4562C310.101 90.0322 311.445 90.3202 312.981 90.3202C315.669 90.3202 318.549 89.4562 321.621 87.7282C324.693 85.9042 327.045 83.1682 328.677 79.5202L331.269 81.3922C329.253 86.0002 326.517 89.5042 323.061 91.9042C319.701 94.3042 316.197 95.5042 312.549 95.5042C310.341 95.5042 307.941 95.0722 305.349 94.2082C301.797 98.4322 297.909 101.888 293.685 104.576C289.461 107.264 285.333 108.608 281.301 108.608ZM304.053 86.4322C306.453 82.8802 308.421 79.1842 309.957 75.3442C311.589 71.5042 312.405 68.0482 312.405 64.9762C312.405 60.7522 311.061 58.6402 308.373 58.6402C307.125 58.6402 305.829 59.2642 304.485 60.5122C303.141 61.7602 302.037 63.4402 301.173 65.5522C300.309 67.5682 299.877 69.8242 299.877 72.3202C299.877 74.5282 300.261 77.0722 301.029 79.9522C301.797 82.7362 302.805 84.8962 304.053 86.4322ZM286.485 101.264C288.213 101.264 290.325 100.304 292.821 98.3842C295.317 96.4642 297.813 94.0162 300.309 91.0402C294.837 86.2402 291.957 79.1842 291.669 69.8722C290.517 70.4482 289.125 72.2242 287.493 75.2002C285.861 78.1762 284.469 81.4882 283.317 85.1362C282.165 88.7842 281.589 91.9522 281.589 94.6402C281.589 99.0562 283.221 101.264 286.485 101.264Z" fill="#41659A"/>
<path d="M396.333 116.528C387.117 116.528 382.413 112.832 382.221 105.44C382.221 102.944 382.653 100.016 383.517 96.6562C384.477 93.2002 385.725 89.0722 387.261 84.2722C390.429 74.6722 393.789 65.4082 397.341 56.4802C400.989 47.4562 405.453 36.7042 410.733 24.2242L415.917 11.9842C406.413 12.0802 398.637 12.4162 392.589 12.9922C386.637 13.4722 380.349 14.2882 373.725 15.4402C374.301 9.77623 377.853 5.84023 384.381 3.63223C390.909 1.42423 400.077 0.320232 411.885 0.320232C419.661 0.320232 429.309 0.896235 440.829 2.04824C450.909 3.00824 458.301 3.48824 463.005 3.48824C459.165 7.13623 454.029 9.48823 447.597 10.5442C441.261 11.5042 433.629 11.9842 424.701 11.9842C416.829 31.3762 409.053 55.1842 401.373 83.4082C399.165 91.5682 397.677 97.4242 396.909 100.976C396.237 104.528 395.901 108.32 395.901 112.352C395.901 113.696 396.045 115.088 396.333 116.528Z" fill="#41659A"/>
<path d="M433.423 110.768C430.063 110.768 427.279 109.664 425.071 107.456C422.767 105.248 421.615 102.128 421.615 98.0962C421.615 92.5282 423.631 86.2882 427.663 79.3762C431.791 72.4642 437.023 66.6082 443.359 61.8082C449.695 57.0082 456.031 54.6082 462.367 54.6082C466.591 54.6082 470.095 55.7122 472.879 57.9202C475.759 60.0322 477.199 62.7682 477.199 66.1282C477.199 70.5442 474.463 72.8482 468.991 73.0402C472.447 74.0962 474.175 75.5362 474.175 77.3602C474.175 78.0322 473.839 79.0402 473.167 80.3842C472.495 81.7282 471.727 83.1202 470.863 84.5602C469.327 87.0562 468.127 89.2642 467.263 91.1842C466.399 93.0082 465.967 94.7362 465.967 96.3682C465.967 97.8082 466.303 99.0562 466.975 100.112C467.743 101.072 468.847 101.552 470.287 101.552C472.975 101.552 476.383 99.6802 480.511 95.9362C484.735 92.1922 488.815 86.5762 492.751 79.0882L495.487 81.8242C491.935 89.7922 487.519 96.2242 482.239 101.12C476.959 105.92 471.631 108.32 466.255 108.32C462.415 108.32 459.439 107.024 457.327 104.432C455.311 101.936 454.303 99.0562 454.303 95.7922C449.983 100.976 446.287 104.768 443.215 107.168C440.143 109.568 436.879 110.768 433.423 110.768ZM436.447 103.424C439.807 103.424 443.695 101.024 448.111 96.2242C452.623 91.3282 457.711 84.9922 463.375 77.2162L466.255 73.3282C466.543 72.8482 466.927 72.6082 467.407 72.6082L467.983 72.7522C468.463 71.2162 468.703 69.4402 468.703 67.4242C468.703 62.4322 466.687 59.9362 462.655 59.9362C458.431 59.9362 454.015 62.1922 449.407 66.7042C444.799 71.2162 440.911 76.5922 437.743 82.8322C434.671 89.0722 433.135 94.4002 433.135 98.8162C433.135 100.448 433.375 101.648 433.855 102.416C434.431 103.088 435.295 103.424 436.447 103.424Z" fill="#41659A"/>
<path d="M537.872 106.88C534.224 106.88 531.392 105.968 529.376 104.144C527.36 102.32 526.352 99.9202 526.352 96.9442C526.352 95.6962 526.544 94.2562 526.928 92.6242C527.408 90.9922 527.888 89.3602 528.368 87.7282C529.712 83.3122 530.384 80.0482 530.384 77.9362C530.384 76.0162 529.904 74.6242 528.944 73.7602C527.984 72.8002 526.784 72.3202 525.344 72.3202C520.256 72.3202 515.12 75.5362 509.936 81.9682C504.752 88.3042 499.184 96.3682 493.232 106.16C489.104 106.16 485.984 104.768 483.872 101.984L485.168 98.3842C490.832 84.6562 493.664 74.4802 493.664 67.8562C494.432 66.9922 495.536 66.2242 496.976 65.5522C498.416 64.7842 499.808 64.4002 501.152 64.4002C502.784 64.4002 504.032 64.7842 504.896 65.5522C505.76 66.3202 506.192 67.3762 506.192 68.7202C506.192 71.3122 505.376 75.5842 503.744 81.5362C508.064 75.7762 512.528 71.0722 517.136 67.4242C521.84 63.7762 526.448 61.9522 530.96 61.9522C534.8 61.9522 537.776 63.2962 539.888 65.9842C542 68.5762 543.056 71.6962 543.056 75.3442C543.056 77.4562 542.768 79.4722 542.192 81.3922C541.712 83.3122 540.944 85.4722 539.888 87.8722C538.256 91.9042 537.44 94.9282 537.44 96.9442C537.44 98.3842 537.776 99.4402 538.448 100.112C539.12 100.784 539.936 101.12 540.896 101.12C544.064 101.12 547.472 98.9602 551.12 94.6402C554.864 90.2242 558.224 85.0402 561.2 79.0882L563.648 81.1042C560.192 89.0722 556.352 95.3602 552.128 99.9682C548 104.576 543.248 106.88 537.872 106.88Z" fill="#41659A"/>
<path d="M565.47 110.768C562.11 110.768 559.326 109.664 557.118 107.456C554.814 105.248 553.662 102.128 553.662 98.0962C553.662 92.5282 555.678 86.2882 559.71 79.3762C563.838 72.4642 569.07 66.6082 575.406 61.8082C581.742 57.0082 588.078 54.6082 594.414 54.6082C598.638 54.6082 602.142 55.7122 604.926 57.9202C607.806 60.0322 609.246 62.7682 609.246 66.1282C609.246 70.5442 606.51 72.8482 601.038 73.0402C604.494 74.0962 606.222 75.5362 606.222 77.3602C606.222 78.0322 605.886 79.0402 605.214 80.3842C604.542 81.7282 603.774 83.1202 602.91 84.5602C601.374 87.0562 600.174 89.2642 599.31 91.1842C598.446 93.0082 598.014 94.7362 598.014 96.3682C598.014 97.8082 598.35 99.0562 599.022 100.112C599.79 101.072 600.894 101.552 602.334 101.552C605.022 101.552 608.43 99.6802 612.558 95.9362C616.782 92.1922 620.862 86.5762 624.798 79.0882L627.534 81.8242C623.982 89.7922 619.566 96.2242 614.286 101.12C609.006 105.92 603.678 108.32 598.302 108.32C594.462 108.32 591.486 107.024 589.374 104.432C587.358 101.936 586.35 99.0562 586.35 95.7922C582.03 100.976 578.334 104.768 575.262 107.168C572.19 109.568 568.926 110.768 565.47 110.768ZM568.494 103.424C571.854 103.424 575.742 101.024 580.158 96.2242C584.67 91.3282 589.758 84.9922 595.422 77.2162L598.302 73.3282C598.59 72.8482 598.974 72.6082 599.454 72.6082L600.03 72.7522C600.51 71.2162 600.75 69.4402 600.75 67.4242C600.75 62.4322 598.734 59.9362 594.702 59.9362C590.478 59.9362 586.062 62.1922 581.454 66.7042C576.846 71.2162 572.958 76.5922 569.79 82.8322C566.718 89.0722 565.182 94.4002 565.182 98.8162C565.182 100.448 565.422 101.648 565.902 102.416C566.478 103.088 567.342 103.424 568.494 103.424Z" fill="#41659A"/>
<path d="M667.039 109.472C663.295 109.472 660.127 107.936 657.535 104.864C654.943 101.888 653.023 98.2882 651.775 94.0642C650.527 89.8402 649.903 86.0482 649.903 82.6882C662.287 79.9042 668.479 75.6322 668.479 69.8722C668.479 68.1442 667.903 66.7522 666.751 65.6962C665.695 64.6402 664.159 64.1122 662.143 64.1122C656.287 64.1122 651.103 67.8562 646.591 75.3442C642.175 82.7362 638.143 91.3282 634.495 101.12C633.439 104 632.431 105.92 631.471 106.88C630.511 107.936 629.119 108.464 627.295 108.464C625.759 108.464 624.415 107.792 623.263 106.448C622.207 105.104 621.679 102.176 621.679 97.6642C621.679 86.6242 624.511 73.5202 630.175 58.3522C635.839 43.0882 642.319 29.7442 649.615 18.3202C656.911 6.89623 662.479 1.18423 666.319 1.18423C667.951 1.18423 669.295 2.19223 670.351 4.20823C671.503 6.22423 672.079 8.72023 672.079 11.6962C672.079 16.0162 670.783 21.0082 668.191 26.6722C665.695 32.2402 662.143 37.6162 657.535 42.8002C653.023 47.9842 647.935 52.2562 642.271 55.6162C639.775 61.5682 637.759 67.6162 636.223 73.7602C634.687 79.8082 633.727 85.3282 633.343 90.3202C643.711 66.5122 654.367 54.6082 665.311 54.6082C669.151 54.6082 672.511 56.0002 675.391 58.7842C678.271 61.4722 679.711 64.7842 679.711 68.7202C679.711 72.2722 678.511 75.3442 676.111 77.9362C673.711 80.4322 670.879 82.3522 667.615 83.6962C664.351 84.9442 661.471 85.6162 658.975 85.7122C659.935 90.1282 661.231 94.0642 662.863 97.5202C664.591 100.88 667.087 102.56 670.351 102.56C673.807 102.56 677.455 100.304 681.295 95.7922C685.135 91.1842 688.639 85.3762 691.807 78.3682L693.823 80.8162C691.135 88.5922 687.295 95.3122 682.303 100.976C677.311 106.64 672.223 109.472 667.039 109.472ZM646.447 45.8242C651.151 41.6962 655.423 36.7522 659.263 30.9922C663.199 25.1362 665.215 19.7122 665.311 14.7202C663.775 15.3922 661.135 18.7522 657.391 24.8002C653.647 30.8482 649.999 37.8562 646.447 45.8242Z" fill="#41659A"/>
<path d="M695.97 110.768C692.61 110.768 689.826 109.664 687.618 107.456C685.314 105.248 684.162 102.128 684.162 98.0962C684.162 92.5282 686.178 86.2882 690.21 79.3762C694.338 72.4642 699.57 66.6082 705.906 61.8082C712.242 57.0082 718.578 54.6082 724.914 54.6082C729.138 54.6082 732.642 55.7122 735.426 57.9202C738.306 60.0322 739.746 62.7682 739.746 66.1282C739.746 70.5442 737.01 72.8482 731.538 73.0402C734.994 74.0962 736.722 75.5362 736.722 77.3602C736.722 78.0322 736.386 79.0402 735.714 80.3842C735.042 81.7282 734.274 83.1202 733.41 84.5602C731.874 87.0562 730.674 89.2642 729.81 91.1842C728.946 93.0082 728.514 94.7362 728.514 96.3682C728.514 97.8082 728.85 99.0562 729.522 100.112C730.29 101.072 731.394 101.552 732.834 101.552C735.522 101.552 738.93 99.6802 743.058 95.9362C747.282 92.1922 751.362 86.5762 755.298 79.0882L758.034 81.8242C754.482 89.7922 750.066 96.2242 744.786 101.12C739.506 105.92 734.178 108.32 728.802 108.32C724.962 108.32 721.986 107.024 719.874 104.432C717.858 101.936 716.85 99.0562 716.85 95.7922C712.53 100.976 708.834 104.768 705.762 107.168C702.69 109.568 699.426 110.768 695.97 110.768ZM698.994 103.424C702.354 103.424 706.242 101.024 710.658 96.2242C715.17 91.3282 720.258 84.9922 725.922 77.2162L728.802 73.3282C729.09 72.8482 729.474 72.6082 729.954 72.6082L730.53 72.7522C731.01 71.2162 731.25 69.4402 731.25 67.4242C731.25 62.4322 729.234 59.9362 725.202 59.9362C720.978 59.9362 716.562 62.1922 711.954 66.7042C707.346 71.2162 703.458 76.5922 700.29 82.8322C697.218 89.0722 695.682 94.4002 695.682 98.8162C695.682 100.448 695.922 101.648 696.402 102.416C696.978 103.088 697.842 103.424 698.994 103.424Z" fill="#41659A"/>
</svg>
