<svg width="751" height="109" viewBox="0 0 751 109" fill="none" xmlns="http://www.w3.org/2000/svg">
<path d="M68.0656 81.3999C68.2189 82.0132 68.2955 82.4732 68.2955 82.7799C68.2955 83.7766 67.9505 84.5816 67.2605 85.1949C66.5705 85.8082 65.7655 86.1149 64.8455 86.1149C64.0789 86.1149 63.3889 85.9232 62.7755 85.5399C62.2389 85.0799 61.8172 84.5049 61.5105 83.8149L52.8855 62.7699H15.5105L7.00053 83.8149C6.3872 85.3482 5.35221 86.1149 3.89554 86.1149C2.82221 86.1149 2.01721 85.8466 1.48055 85.3099C0.943878 84.7732 0.637214 84.0449 0.560547 83.1249V82.7799C0.560547 82.3199 0.59887 81.9749 0.675537 81.7449L31.0355 7.4549C31.6489 5.92157 32.7989 5.1549 34.4855 5.1549C35.2522 5.1549 35.9039 5.3849 36.4405 5.8449C37.0539 6.22824 37.5139 6.7649 37.8205 7.4549L68.0656 81.3999ZM50.1255 55.9849L34.0255 16.6549L18.1555 55.9849H50.1255Z" fill="black"/>
<path d="M121.664 26.1999C122.66 26.1999 123.465 26.5449 124.079 27.2349C124.769 27.8482 125.114 28.6532 125.114 29.6499V80.3649C125.114 86.4216 123.925 91.5966 121.549 95.8899C119.172 100.183 115.875 103.442 111.659 105.665C107.442 107.888 102.689 109 97.3986 109C94.1786 109 91.1503 108.655 88.3136 107.965C85.5536 107.275 83.2536 106.355 81.4136 105.205C79.8036 104.208 78.9986 103.097 78.9986 101.87C78.9986 101.717 79.0753 101.333 79.2286 100.72C79.4586 99.9532 79.842 99.3782 80.3786 98.9949C80.9153 98.6116 81.4903 98.4199 82.1036 98.4199C82.5636 98.4199 83.0236 98.5349 83.4836 98.7649C88.3903 101.448 93.067 102.79 97.5136 102.79C103.877 102.79 108.899 100.797 112.579 96.8099C116.335 92.8232 118.214 87.3799 118.214 80.4799V76.4549C116.297 79.6749 113.537 82.2816 109.934 84.2749C106.33 86.1916 102.42 87.1499 98.2036 87.1499C91.5336 87.1499 86.4736 85.1566 83.0236 81.1699C79.5736 77.1832 77.8486 71.7782 77.8486 64.9549V29.6499C77.8486 28.6532 78.1553 27.8482 78.7686 27.2349C79.4586 26.5449 80.302 26.1999 81.2986 26.1999C82.2953 26.1999 83.1003 26.5449 83.7136 27.2349C84.4036 27.8482 84.7486 28.6532 84.7486 29.6499V63.9199C84.7486 69.4399 85.937 73.6182 88.3136 76.4549C90.767 79.2916 94.562 80.7099 99.6986 80.7099C102.842 80.7099 105.832 79.9432 108.669 78.4099C111.582 76.7999 113.882 74.7299 115.569 72.1999C117.332 69.5932 118.214 66.8332 118.214 63.9199V29.6499C118.214 28.6532 118.52 27.8482 119.134 27.2349C119.824 26.5449 120.667 26.1999 121.664 26.1999Z" fill="black"/>
<path d="M195.539 27.2349C196.536 27.2349 197.341 27.5799 197.954 28.2699C198.644 28.9599 198.989 29.8032 198.989 30.7999V82.5499C198.989 83.5466 198.644 84.3899 197.954 85.0799C197.341 85.6932 196.536 85.9999 195.539 85.9999C194.543 85.9999 193.699 85.6932 193.009 85.0799C192.396 84.3899 192.089 83.5466 192.089 82.5499V74.8449C190.173 78.2949 187.298 81.2082 183.464 83.5849C179.631 85.9616 175.453 87.1499 170.929 87.1499C165.793 87.1499 161.154 85.8082 157.014 83.1249C152.951 80.4416 149.731 76.7616 147.354 72.0849C145.054 67.4082 143.904 62.1566 143.904 56.3299C143.904 50.5032 145.093 45.2899 147.469 40.6899C149.846 36.0132 153.066 32.3716 157.129 29.7649C161.269 27.1582 165.831 25.8549 170.814 25.8549C175.414 25.8549 179.631 26.9666 183.464 29.1899C187.298 31.4132 190.173 34.3266 192.089 37.9299V30.7999C192.089 29.8032 192.396 28.9599 193.009 28.2699C193.699 27.5799 194.543 27.2349 195.539 27.2349ZM171.619 80.7099C175.606 80.7099 179.171 79.6749 182.314 77.6049C185.534 75.4582 188.026 72.5449 189.789 68.8649C191.629 65.1082 192.549 60.9299 192.549 56.3299C192.549 51.8832 191.629 47.8199 189.789 44.1399C188.026 40.4599 185.534 37.5849 182.314 35.5149C179.171 33.3682 175.606 32.2949 171.619 32.2949C167.633 32.2949 164.029 33.3299 160.809 35.3999C157.666 37.4699 155.174 40.3449 153.334 44.0249C151.571 47.6282 150.689 51.7299 150.689 56.3299C150.689 60.9299 151.571 65.1082 153.334 68.8649C155.098 72.5449 157.551 75.4582 160.694 77.6049C163.914 79.6749 167.556 80.7099 171.619 80.7099Z" fill="black"/>
<path d="M263.569 79.9049C264.259 80.6716 264.604 81.5532 264.604 82.5499C264.604 83.5466 264.182 84.3899 263.339 85.0799C262.572 85.6932 261.844 85.9999 261.154 85.9999C260.157 85.9999 259.314 85.5782 258.624 84.7349L233.209 57.8249L224.584 65.1849V82.5499C224.584 83.5466 224.239 84.3899 223.549 85.0799C222.936 85.6932 222.131 85.9999 221.134 85.9999C220.137 85.9999 219.294 85.6932 218.604 85.0799C217.991 84.3899 217.684 83.5466 217.684 82.5499V4.3499C217.684 3.35323 217.991 2.54823 218.604 1.9349C219.294 1.2449 220.137 0.899902 221.134 0.899902C222.131 0.899902 222.936 1.2449 223.549 1.9349C224.239 2.54823 224.584 3.35323 224.584 4.3499V56.7899L257.819 28.1549C258.509 27.3882 259.314 27.0049 260.234 27.0049C261.077 27.0049 261.844 27.3882 262.534 28.1549C263.224 28.8449 263.569 29.6116 263.569 30.4549C263.569 31.3749 263.147 32.2566 262.304 33.0999L238.614 53.2249L263.569 79.9049Z" fill="black"/>
<path d="M330.234 56.5599C330.234 62.3099 328.969 67.5232 326.439 72.1999C323.909 76.8766 320.421 80.5566 315.974 83.2399C311.527 85.8466 306.582 87.1499 301.139 87.1499C295.696 87.1499 290.751 85.8466 286.304 83.2399C281.857 80.5566 278.369 76.8766 275.839 72.1999C273.309 67.5232 272.044 62.3099 272.044 56.5599C272.044 50.8099 273.309 45.5966 275.839 40.9199C278.369 36.2432 281.857 32.5632 286.304 29.8799C290.751 27.1966 295.696 25.8549 301.139 25.8549C306.582 25.8549 311.527 27.1966 315.974 29.8799C320.421 32.5632 323.909 36.2432 326.439 40.9199C328.969 45.5966 330.234 50.8099 330.234 56.5599ZM323.334 56.5599C323.334 51.9599 322.376 47.8199 320.459 44.1399C318.542 40.4599 315.859 37.5849 312.409 35.5149C309.036 33.3682 305.279 32.2949 301.139 32.2949C296.999 32.2949 293.242 33.3682 289.869 35.5149C286.496 37.5849 283.812 40.4599 281.819 44.1399C279.902 47.8199 278.944 51.9599 278.944 56.5599C278.944 61.0832 279.902 65.1849 281.819 68.8649C283.812 72.5449 286.496 75.4582 289.869 77.6049C293.242 79.6749 296.999 80.7099 301.139 80.7099C305.279 80.7099 309.036 79.6749 312.409 77.6049C315.859 75.5349 318.542 72.6599 320.459 68.9799C322.376 65.2999 323.334 61.1599 323.334 56.5599Z" fill="black"/>
<path d="M428.808 5.4999C429.805 5.4999 430.61 5.80657 431.223 6.4199C431.913 7.03324 432.258 7.83824 432.258 8.8349C432.258 9.83157 431.913 10.6366 431.223 11.2499C430.61 11.7866 429.805 12.0549 428.808 12.0549H405.003V82.5499C405.003 83.5466 404.658 84.3899 403.968 85.0799C403.278 85.6932 402.435 85.9999 401.438 85.9999C400.365 85.9999 399.483 85.6932 398.793 85.0799C398.18 84.3899 397.873 83.5466 397.873 82.5499V12.0549H374.068C373.071 12.0549 372.228 11.7482 371.538 11.1349C370.925 10.5216 370.618 9.71657 370.618 8.7199C370.618 7.7999 370.925 7.03324 371.538 6.4199C372.228 5.80657 373.071 5.4999 374.068 5.4999H428.808Z" fill="black"/>
<path d="M481.467 27.2349C482.464 27.2349 483.269 27.5799 483.882 28.2699C484.572 28.9599 484.917 29.8032 484.917 30.7999V82.5499C484.917 83.5466 484.572 84.3899 483.882 85.0799C483.269 85.6932 482.464 85.9999 481.467 85.9999C480.47 85.9999 479.627 85.6932 478.937 85.0799C478.324 84.3899 478.017 83.5466 478.017 82.5499V74.8449C476.1 78.2949 473.225 81.2082 469.392 83.5849C465.559 85.9616 461.381 87.1499 456.857 87.1499C451.721 87.1499 447.082 85.8082 442.942 83.1249C438.879 80.4416 435.659 76.7616 433.282 72.0849C430.982 67.4082 429.832 62.1566 429.832 56.3299C429.832 50.5032 431.02 45.2899 433.397 40.6899C435.774 36.0132 438.994 32.3716 443.057 29.7649C447.197 27.1582 451.759 25.8549 456.742 25.8549C461.342 25.8549 465.559 26.9666 469.392 29.1899C473.225 31.4132 476.1 34.3266 478.017 37.9299V30.7999C478.017 29.8032 478.324 28.9599 478.937 28.2699C479.627 27.5799 480.47 27.2349 481.467 27.2349ZM457.547 80.7099C461.534 80.7099 465.099 79.6749 468.242 77.6049C471.462 75.4582 473.954 72.5449 475.717 68.8649C477.557 65.1082 478.477 60.9299 478.477 56.3299C478.477 51.8832 477.557 47.8199 475.717 44.1399C473.954 40.4599 471.462 37.5849 468.242 35.5149C465.099 33.3682 461.534 32.2949 457.547 32.2949C453.561 32.2949 449.957 33.3299 446.737 35.3999C443.594 37.4699 441.102 40.3449 439.262 44.0249C437.499 47.6282 436.617 51.7299 436.617 56.3299C436.617 60.9299 437.499 65.1082 439.262 68.8649C441.025 72.5449 443.479 75.4582 446.622 77.6049C449.842 79.6749 453.484 80.7099 457.547 80.7099Z" fill="black"/>
<path d="M530.637 25.8549C537.767 25.8549 542.98 27.9632 546.277 32.1799C549.65 36.3199 551.337 41.8399 551.337 48.7399V82.5499C551.337 83.5466 550.992 84.3899 550.302 85.0799C549.612 85.6932 548.807 85.9999 547.887 85.9999C546.89 85.9999 546.047 85.6932 545.357 85.0799C544.744 84.3899 544.437 83.5466 544.437 82.5499V49.0849C544.437 44.1016 543.172 40.0766 540.642 37.0099C538.189 33.8666 534.355 32.2949 529.142 32.2949C525.845 32.2949 522.702 33.0616 519.712 34.5949C516.799 36.1282 514.422 38.1982 512.582 40.8049C510.742 43.3349 509.822 46.0949 509.822 49.0849V82.5499C509.822 83.5466 509.477 84.3899 508.787 85.0799C508.174 85.6932 507.368 85.9999 506.372 85.9999C505.375 85.9999 504.532 85.6932 503.842 85.0799C503.229 84.3899 502.922 83.5466 502.922 82.5499V31.0299C502.922 30.0332 503.229 29.2282 503.842 28.6149C504.532 27.9249 505.375 27.5799 506.372 27.5799C507.368 27.5799 508.174 27.9249 508.787 28.6149C509.477 29.2282 509.822 30.0332 509.822 31.0299V37.3549C511.892 34.0582 514.844 31.3366 518.677 29.1899C522.587 26.9666 526.573 25.8549 530.637 25.8549Z" fill="black"/>
<path d="M617.131 27.2349C618.128 27.2349 618.933 27.5799 619.546 28.2699C620.236 28.9599 620.581 29.8032 620.581 30.7999V82.5499C620.581 83.5466 620.236 84.3899 619.546 85.0799C618.933 85.6932 618.128 85.9999 617.131 85.9999C616.135 85.9999 615.291 85.6932 614.601 85.0799C613.988 84.3899 613.681 83.5466 613.681 82.5499V74.8449C611.765 78.2949 608.89 81.2082 605.056 83.5849C601.223 85.9616 597.045 87.1499 592.521 87.1499C587.385 87.1499 582.746 85.8082 578.606 83.1249C574.543 80.4416 571.323 76.7616 568.946 72.0849C566.646 67.4082 565.496 62.1566 565.496 56.3299C565.496 50.5032 566.685 45.2899 569.061 40.6899C571.438 36.0132 574.658 32.3716 578.721 29.7649C582.861 27.1582 587.423 25.8549 592.406 25.8549C597.006 25.8549 601.223 26.9666 605.056 29.1899C608.89 31.4132 611.765 34.3266 613.681 37.9299V30.7999C613.681 29.8032 613.988 28.9599 614.601 28.2699C615.291 27.5799 616.135 27.2349 617.131 27.2349ZM593.211 80.7099C597.198 80.7099 600.763 79.6749 603.906 77.6049C607.126 75.4582 609.618 72.5449 611.381 68.8649C613.221 65.1082 614.141 60.9299 614.141 56.3299C614.141 51.8832 613.221 47.8199 611.381 44.1399C609.618 40.4599 607.126 37.5849 603.906 35.5149C600.763 33.3682 597.198 32.2949 593.211 32.2949C589.225 32.2949 585.621 33.3299 582.401 35.3999C579.258 37.4699 576.766 40.3449 574.926 44.0249C573.163 47.6282 572.281 51.7299 572.281 56.3299C572.281 60.9299 573.163 65.1082 574.926 68.8649C576.69 72.5449 579.143 75.4582 582.286 77.6049C585.506 79.6749 589.148 80.7099 593.211 80.7099Z" fill="black"/>
<path d="M685.161 79.9049C685.851 80.6716 686.196 81.5532 686.196 82.5499C686.196 83.5466 685.774 84.3899 684.931 85.0799C684.164 85.6932 683.436 85.9999 682.746 85.9999C681.749 85.9999 680.906 85.5782 680.216 84.7349L654.801 57.8249L646.176 65.1849V82.5499C646.176 83.5466 645.831 84.3899 645.141 85.0799C644.528 85.6932 643.723 85.9999 642.726 85.9999C641.729 85.9999 640.886 85.6932 640.196 85.0799C639.583 84.3899 639.276 83.5466 639.276 82.5499V4.3499C639.276 3.35323 639.583 2.54823 640.196 1.9349C640.886 1.2449 641.729 0.899902 642.726 0.899902C643.723 0.899902 644.528 1.2449 645.141 1.9349C645.831 2.54823 646.176 3.35323 646.176 4.3499V56.7899L679.411 28.1549C680.101 27.3882 680.906 27.0049 681.826 27.0049C682.669 27.0049 683.436 27.3882 684.126 28.1549C684.816 28.8449 685.161 29.6116 685.161 30.4549C685.161 31.3749 684.739 32.2566 683.896 33.0999L660.206 53.2249L685.161 79.9049Z" fill="black"/>
<path d="M747.405 27.2349C748.401 27.2349 749.206 27.5799 749.82 28.2699C750.51 28.9599 750.855 29.8032 750.855 30.7999V82.5499C750.855 83.5466 750.51 84.3899 749.82 85.0799C749.206 85.6932 748.401 85.9999 747.405 85.9999C746.408 85.9999 745.565 85.6932 744.875 85.0799C744.261 84.3899 743.955 83.5466 743.955 82.5499V74.8449C742.038 78.2949 739.163 81.2082 735.33 83.5849C731.496 85.9616 727.318 87.1499 722.795 87.1499C717.658 87.1499 713.02 85.8082 708.88 83.1249C704.816 80.4416 701.596 76.7616 699.22 72.0849C696.92 67.4082 695.77 62.1566 695.77 56.3299C695.77 50.5032 696.958 45.2899 699.335 40.6899C701.711 36.0132 704.931 32.3716 708.995 29.7649C713.135 27.1582 717.696 25.8549 722.68 25.8549C727.28 25.8549 731.496 26.9666 735.33 29.1899C739.163 31.4132 742.038 34.3266 743.955 37.9299V30.7999C743.955 29.8032 744.261 28.9599 744.875 28.2699C745.565 27.5799 746.408 27.2349 747.405 27.2349ZM723.485 80.7099C727.471 80.7099 731.036 79.6749 734.18 77.6049C737.4 75.4582 739.891 72.5449 741.655 68.8649C743.495 65.1082 744.415 60.9299 744.415 56.3299C744.415 51.8832 743.495 47.8199 741.655 44.1399C739.891 40.4599 737.4 37.5849 734.18 35.5149C731.036 33.3682 727.471 32.2949 723.485 32.2949C719.498 32.2949 715.895 33.3299 712.675 35.3999C709.531 37.4699 707.04 40.3449 705.2 44.0249C703.436 47.6282 702.555 51.7299 702.555 56.3299C702.555 60.9299 703.436 65.1082 705.2 68.8649C706.963 72.5449 709.416 75.4582 712.56 77.6049C715.78 79.6749 719.421 80.7099 723.485 80.7099Z" fill="black"/>
</svg>
