<svg width="345" height="275" viewBox="0 0 345 275" fill="none" xmlns="http://www.w3.org/2000/svg">
<path d="M173.5 182C237.857 194.076 277.754 193.634 341.5 182C345.378 155.965 313.5 146 270.5 111.862C237 108 199.817 89.2697 173.5 91.5C153.494 129.695 150.178 149.983 173.5 182Z" fill="black" stroke="black"/>
<path d="M173.319 181.684C108.963 193.76 69.065 193.318 5.31943 181.684C1.44182 155.648 33.3194 145.684 76.3194 111.546C109.819 107.684 147.002 88.9535 173.319 91.1838C193.326 129.379 196.641 149.667 173.319 181.684Z" fill="black" stroke="black"/>
<path d="M173.319 182.892C108.963 170.816 69.065 171.258 5.31943 182.892C1.44182 208.927 33.3194 218.892 76.3194 253.03C109.819 256.892 147.002 275.622 173.319 273.392C193.326 235.197 196.641 214.909 173.319 182.892Z" fill="black" stroke="black"/>
<path d="M173.272 182.892C237.628 170.816 277.526 171.258 341.272 182.892C345.149 208.927 313.272 218.892 270.272 253.03C236.772 256.892 199.589 275.622 173.272 273.392C153.265 235.197 149.95 214.909 173.272 182.892Z" fill="black" stroke="black"/>
<path d="M10 163C-0.639224 179.168 -2.06561 183.855 8.99999 200.5L10 163Z" fill="black" stroke="black"/>
<path d="M336 162C346.639 178.168 347.066 185.855 336 202.5L336 162Z" fill="black" stroke="black"/>
<path d="M174.83 181.533C230.712 192.22 265.356 191.829 320.708 181.533C324.075 158.492 296.395 149.674 259.057 119.462C229.968 116.045 197.681 99.4688 174.83 101.443C157.458 135.245 154.579 153.199 174.83 181.533Z" fill="#ECECEC" stroke="#ECECEC"/>
<path d="M174.673 181.253C118.791 191.94 84.1464 191.549 28.7948 181.253C25.4278 158.212 53.1078 149.394 90.4456 119.182C119.534 115.765 151.821 99.1889 174.673 101.163C192.045 134.965 194.924 152.919 174.673 181.253Z" fill="#ECECEC" stroke="#ECECEC"/>
<path d="M174.673 182.323C118.791 171.636 84.1464 172.027 28.7948 182.323C25.4278 205.363 53.1078 214.182 90.4456 244.393C119.534 247.811 151.821 264.387 174.673 262.413C192.045 228.611 194.924 210.657 174.673 182.323Z" fill="#ECECEC" stroke="#ECECEC"/>
<path d="M174.631 182.323C230.514 171.636 265.158 172.027 320.509 182.323C323.876 205.363 296.196 214.182 258.859 244.393C229.77 247.811 197.483 264.387 174.631 262.413C157.259 228.611 154.381 210.657 174.631 182.323Z" fill="#ECECEC" stroke="#ECECEC"/>
<path d="M32.859 164.719C23.6208 179.027 22.3822 183.174 31.9907 197.905L32.859 164.719Z" fill="#ECECEC" stroke="#ECECEC"/>
<path d="M315.932 163.834C325.17 178.142 325.54 184.944 315.932 199.675L315.932 163.834Z" fill="#ECECEC" stroke="#ECECEC"/>
<path d="M173.5 2L77 111.5" stroke="black" stroke-width="2"/>
<path d="M172.5 1.5L270 112" stroke="black" stroke-width="2"/>
<path d="M106.622 208.184C107.559 206.161 110.124 200.537 114.318 191.312C118.511 182.087 122.976 172.121 127.712 161.416C128.205 160.281 128.452 159.27 128.452 158.382C128.452 157.741 128.279 157.272 127.934 156.976C127.588 156.631 126.922 156.458 125.936 156.458C123.962 156.458 122.285 157.149 120.904 158.53C119.522 159.862 118.486 161.564 117.796 163.636C117.105 165.708 116.76 167.805 116.76 169.926C116.76 170.567 116.809 171.332 116.908 172.22C115.625 172.22 114.638 171.579 113.948 170.296C113.306 169.013 112.986 167.632 112.986 166.152C112.986 164.08 113.726 162.082 115.206 160.158C116.686 158.234 118.536 156.68 120.756 155.496C123.025 154.312 125.245 153.72 127.416 153.72C129.142 153.72 130.524 154.189 131.56 155.126C132.645 156.063 133.459 157.741 134.002 160.158C134.594 162.575 134.89 165.955 134.89 170.296C134.89 174.292 134.594 180.286 134.002 188.278C133.706 192.077 133.484 195.801 133.336 199.452C135.013 192.989 138.121 185.614 142.66 177.326C147.248 169.038 151.17 162.501 154.426 157.716C155.215 156.532 155.832 155.743 156.276 155.348C156.769 154.904 157.386 154.682 158.126 154.682C158.816 154.682 159.606 154.855 160.494 155.2C159.26 158.16 158.15 161.613 157.164 165.56C155.486 172.072 153.932 179.571 152.502 188.056C151.12 196.492 150.43 202.93 150.43 207.37C150.43 208.554 150.479 209.442 150.578 210.034C150.676 210.626 150.849 211.267 151.096 211.958L151.54 213.438C149.862 213.438 148.58 213.167 147.692 212.624C146.853 212.081 146.261 211.243 145.916 210.108C145.62 208.973 145.472 207.321 145.472 205.15C145.472 199.871 146.088 194.247 147.322 188.278C148.555 182.309 150.405 174.637 152.872 165.264C150.701 168.076 148.284 172.121 145.62 177.4C142.956 182.629 140.464 187.982 138.146 193.458C135.876 198.934 134.174 203.374 133.04 206.778C132.497 206.975 132.127 207.074 131.93 207.074C130.696 207.074 129.833 206.359 129.34 204.928C128.896 203.448 128.674 201.154 128.674 198.046C128.674 195.283 128.871 189.955 129.266 182.062C129.66 174.267 129.858 169.112 129.858 166.596C129.858 165.215 129.808 163.833 129.71 162.452C126.158 170.691 123.099 177.992 120.534 184.356C117.13 192.545 114.589 198.49 112.912 202.19C111.234 205.89 109.705 208.677 108.324 210.552C106.942 212.476 105.586 213.438 104.254 213.438L106.622 208.184ZM167.92 210.256C165.009 210.256 162.764 209.442 161.186 207.814C159.656 206.235 158.892 204.188 158.892 201.672C158.892 198.761 159.854 195.629 161.778 192.274C163.702 188.919 166.119 186.107 169.03 183.838C171.99 181.519 174.876 180.36 177.688 180.36C180.746 180.36 182.276 181.865 182.276 184.874C182.276 187.291 181.363 189.561 179.538 191.682C177.712 193.754 175.369 195.456 172.508 196.788C169.646 198.12 166.785 198.934 163.924 199.23C163.726 200.069 163.628 200.957 163.628 201.894C163.628 203.67 164.072 205.15 164.96 206.334C165.848 207.518 167.352 208.11 169.474 208.11C172.483 208.11 175.517 206.852 178.576 204.336C181.634 201.82 184.126 198.712 186.05 195.012L186.938 195.678C184.964 200.069 182.226 203.596 178.724 206.26C175.221 208.924 171.62 210.256 167.92 210.256ZM164.294 197.824C166.366 197.084 168.536 196.048 170.806 194.716C173.075 193.384 174.999 191.83 176.578 190.054C178.206 188.229 179.02 186.329 179.02 184.356C179.02 183.764 178.896 183.345 178.65 183.098C178.452 182.802 178.058 182.654 177.466 182.654C175.936 182.654 174.259 183.419 172.434 184.948C170.658 186.477 169.005 188.426 167.476 190.794C165.996 193.162 164.935 195.505 164.294 197.824ZM208.472 208.48C206.795 208.48 205.512 208.036 204.624 207.148C203.736 206.309 203.292 205.175 203.292 203.744C203.292 203.103 203.391 202.363 203.588 201.524C203.835 200.636 204.082 199.773 204.328 198.934C204.624 198.046 204.871 197.109 205.068 196.122C205.315 195.135 205.438 194.247 205.438 193.458C205.438 191.041 204.452 189.832 202.478 189.832C200.604 189.832 198.63 190.819 196.558 192.792C194.536 194.765 192.71 196.961 191.082 199.378C189.504 201.795 187.703 204.706 185.68 208.11C184.842 208.11 184.077 207.962 183.386 207.666C182.696 207.419 182.153 207.025 181.758 206.482C181.758 206.235 182.079 205.347 182.72 203.818C183.954 200.661 184.965 197.799 185.754 195.234C186.544 192.619 186.963 190.301 187.012 188.278C187.358 187.883 187.851 187.538 188.492 187.242C189.134 186.897 189.775 186.724 190.416 186.724C191.748 186.724 192.414 187.365 192.414 188.648C192.414 189.388 192.192 190.695 191.748 192.57C191.304 194.395 190.737 196.344 190.046 198.416C192.414 194.765 194.93 191.682 197.594 189.166C200.258 186.65 202.873 185.392 205.438 185.392C207.264 185.392 208.62 186.058 209.508 187.39C210.446 188.673 210.914 190.227 210.914 192.052C210.914 193.137 210.766 194.173 210.47 195.16C210.224 196.147 209.829 197.281 209.286 198.564C208.842 199.649 208.497 200.587 208.25 201.376C208.004 202.165 207.88 202.955 207.88 203.744C207.88 205.619 208.62 206.556 210.1 206.556C211.778 206.556 213.504 205.446 215.28 203.226C217.106 201.006 218.832 198.268 220.46 195.012L221.274 195.974C217.722 204.311 213.455 208.48 208.472 208.48ZM224.591 209.22C222.963 209.22 221.631 208.48 220.595 207C219.559 205.569 219.041 203.818 219.041 201.746C219.041 199.921 219.411 197.676 220.151 195.012C220.94 192.299 221.853 189.955 222.889 187.982C223.974 185.959 224.862 184.948 225.553 184.948C225.849 184.948 226.268 185.096 226.811 185.392C227.403 185.688 227.896 186.033 228.291 186.428C227.255 188.056 226.17 190.399 225.035 193.458C223.9 196.467 223.333 199.082 223.333 201.302C223.333 202.437 223.506 203.547 223.851 204.632C224.246 205.717 224.961 206.26 225.997 206.26C227.724 206.26 229.598 204.681 231.621 201.524C233.693 198.317 235.913 194.272 238.281 189.388L239.465 186.946C241.833 187.39 243.017 188.031 243.017 188.87C243.017 188.969 242.894 189.314 242.647 189.906C242.45 190.449 242.252 190.942 242.055 191.386C240.92 193.902 239.958 196.27 239.169 198.49C238.429 200.661 238.059 202.511 238.059 204.04C238.059 206.013 238.873 207 240.501 207C241.586 207 242.869 206.531 244.349 205.594C245.829 204.607 247.334 203.201 248.863 201.376C250.392 199.551 251.724 197.429 252.859 195.012L253.821 195.678C252.785 198.293 251.428 200.636 249.751 202.708C248.123 204.731 246.347 206.309 244.423 207.444C242.499 208.628 240.674 209.22 238.947 209.22C235.494 209.22 233.767 207.395 233.767 203.744C233.767 202.757 233.94 201.524 234.285 200.044C232.706 202.856 231.128 205.101 229.549 206.778C227.97 208.406 226.318 209.22 224.591 209.22Z" fill="black"/>
</svg>
