<svg width="428" height="113" viewBox="0 0 428 113" fill="none" xmlns="http://www.w3.org/2000/svg">
<path d="M208.5 77.9999C239 66.5 228.5 32.5 308.5 14L313.5 7.49997C237 10 218.5 72.5371 203 69C192.415 63.8796 187.556 62.3259 182.5 63C171.5 63 157.5 80.5 164 64C152 64 153.5 77.9999 164 77.9999C171.5 80 171 72.738 182.5 70C193 67.5 199.5 77.9999 208.5 77.9999Z" fill="black" stroke="black"/>
<path d="M32.5 111C52 114 77.5 105 109 90.4999L113 78.4999C90 78.4999 77.5 64 77.5 48.9999C78.7377 25.6672 87 16 109.5 15.4999C136.5 18.5 141 46.5 119 52.9999C106 59.5 93.4792 49.6065 103 37C97.1207 35.3598 89.3123 48.6073 97 55C100.359 58.4565 103.856 63.8963 118 60.4999C134.584 56.5683 139.5 48.9999 141.5 33.4999C141.393 15.6284 121 7.50004 106 8.5C92.5 8.5 71.5 15.4999 68 39.4999C66 67.5 78 81 97 85.4999C64.8792 103.772 45.5 108.84 21 101C8.5 96.9999 1.49999 68.9999 18 64.4999C34 63.4999 37.1837 81.4606 21 82.4285C32.5 87.9999 40.2684 79.5345 36 68.9999C31.7456 58.4995 22.0631 58.4998 18.0392 58.4999H18C13.1683 59.003 3.13202 60.6772 1.49999 77.4999C-0.206934 94.7773 10 106 32.5 111Z" fill="black" stroke="black"/>
<path d="M365.5 78.5C388.5 77.5 401.219 67.7443 427.5 39.5V28C393.93 60.5282 378.5 77.5 353 72.5C337.5 68.5 331 63.5 318.5 46.5C309.5 30 316.5 6.99999 332.5 6.99999C359.5 10 343.5 56.5 329.5 26.5C322 51 355 44.5 353 28C353 6 342.5 -1.50001 324 1.99999C310.846 5.49564 305.395 15.532 297 39C282.75 70.2895 272.5 72.5 261 72.5C244 72.5 242 50.1805 248.5 43.5C266.5 25 274.5 59 251 53C262 76 288.5 32.5 257 32.5C232 36 229.5 81 265.5 77.5C283.037 75.795 292.25 69.0289 307 34C307 43 321.5 79.5 365.5 78.5Z" fill="black" stroke="black"/>
<rect x="109" y="78" width="319" height="13" fill="black"/>
<path d="M198 95C198 96.5494 196.547 98 194.5 98C192.453 98 191 96.5494 191 95C191 93.4506 192.453 92 194.5 92C196.547 92 198 93.4506 198 95Z" stroke="black" stroke-width="2"/>
<path d="M194 90C194 91.2 194.667 90.5 195 90" stroke="black" stroke-width="3"/>
</svg>
