<svg width="768" height="157" viewBox="0 0 768 157" fill="none" xmlns="http://www.w3.org/2000/svg">
<path d="M6.5 125C42.962 52.9998 58.064 35.3579 87 10.5C63.1529 67.7989 58.3157 96.1461 76 117C65.5459 111.219 61.9231 104.008 61.0586 91.7152M761 89C755.767 110.756 742.735 118.498 731.566 113C726.713 109.205 734.075 96.3326 741 84C716.446 113.774 697.292 122.625 698.036 114.5C706.331 78.9764 726.935 55.0511 745 80.5C730.598 62.2792 716.351 65.9284 691.5 106.5C673.216 119.911 666.151 119.364 662 97C680.777 84.7852 686.856 78.4024 673.5 69.5C658.568 67.5671 648.333 82.5799 632.5 118C633.881 63.9778 647.373 42.7006 673.5 15.5C676.914 37.0159 663.384 52.2715 646.5 60C640.785 69.5852 643.087 82.4997 634 92.5C596.518 127.004 588.386 114.766 612 82.5C600.082 99.5816 571.506 122.384 565.549 113C578.445 80.7828 604.999 55.9436 612 81.5C604.362 60.4192 587.397 66.8097 563 103.5C552.937 114.89 544.594 112.91 541.5 114.5C537.71 107.516 537.216 99.1909 542.5 94.5C542.195 79.4944 541.607 76.8384 537 77.5C529.961 72.6483 516.601 84.6216 494 117L507.5 74.5C492.504 108.934 474.859 119.96 469 114.5C460.622 113.271 467.952 99.6811 477.5 85C449.034 111.259 438.847 122.418 434.5 117C432.877 112.43 429.884 103.53 439 92C458.832 64.4422 474.149 62.5276 477.5 82C486.597 27.419 457.766 54.6456 396 123.5C390.322 124.036 397.668 99.527 411 64C416.407 27.0563 432.821 9.65507 469 15.5C407.401 15.5179 386.935 16.5473 385 23L335.5 89C327.339 109.407 310.4 104.285 301.971 91.7152C298.661 73.6329 304.369 62.6225 321.5 67.5C318.915 76.2809 321.767 89.7361 311 99.5C278.537 130.45 274.461 105.731 295 77C266.183 115.795 251.402 127.512 244.5 95C266.054 82.3941 271.124 76.3788 254.5 69.5C243.766 68.0221 235.558 78.4699 217.5 114.616C217.5 114.616 215 66.5 234 57.5C253 48.5 258.321 33.1598 258.5 15.5C251.093 21.4915 239.616 32.7507 229 57.5C218.192 92.1167 207.223 113.868 190 114.616C179.793 111.335 182.08 101.966 195 85C170.29 109.709 149.737 121.509 149.858 114.616C151.74 83.0766 172.184 56.8231 197.5 79.5C190.524 60.0841 170.525 68.0926 149.858 99.5C97.4816 129.16 81.9427 141.128 91.5 149C109.09 155.269 119.539 128.246 134 73.5C108.244 119.909 79.0632 120.132 106 69.5C101.206 77.216 95.7303 89.4296 91.5 99.5C69.5855 118.892 63.0887 120.286 61.0586 91.7152M61.0586 91.7152C68.588 72.4036 41.9206 71.1939 6.5 69C24.5583 69.6473 42.2542 69.1994 61 76.5C60.7927 82.3247 60.7511 87.3416 61.0586 91.7152Z" stroke="white" stroke-width="14"/>
</svg>
